<?xml version="1.0" encoding="utf-8"?>
<!-- Generator: Adobe Illustrator 25.2.3, SVG Export Plug-In . SVG Version: 6.00 Build 0)  -->
<svg version="1.1" id="Capa_1" xmlns="http://www.w3.org/2000/svg" xmlns:xlink="http://www.w3.org/1999/xlink" x="0px" y="0px"
	 viewBox="0 0 112.6 32.3" style="enable-background:new 0 0 112.6 32.3;" xml:space="preserve">
<style type="text/css">
	.st0{fill:#FFFFFF;}
</style>
<path d="M35.6,32.3h32.3V0H35.6V32.3z M46.4,23.8h3.4V8.5h-3.4v-3H57v3h-3.5v15.3H57v3H46.4V23.8z"/>
<path d="M0,32.3h32.3V0H0V32.3z M8.4,23.4l1.9-1.8h0.3c1.1,1.3,3.2,2.6,5.4,2.6c2.7,0,4.3-1.6,4.3-3.4c0-2.5-2-4-4.9-4h-1.6v-2.6
	h1.7c2.5,0,4.2-1.3,4.2-3.3c0-1.8-1.5-2.8-3.6-2.8c-1.7,0-3.4,0.7-4.6,1.9h-0.3L9.4,8.1V7.9c1.8-1.8,4.3-2.8,6.9-2.8
	c3.9,0,6.8,2,6.8,5.6c0,2-1.1,3.7-2.9,4.7c2.2,1,3.6,2.9,3.6,5.6c0,3.4-2.8,6.3-7.8,6.3c-2.9,0-6-1.4-7.7-3.5V23.4z"/>
<path d="M71.1,32.3h32.3V0H71.1V32.3z M106.7,32.3h6v-6h-6V32.3z M95.9,8.6h-6.8v18.2h-3.6V8.6h-6.8V5.5h17.2V8.6z"/>
<polygon class="st0" points="46.5,23.8 50,23.8 50,8.5 46.5,8.5 46.5,5.5 57.1,5.5 57.1,8.5 53.6,8.5 53.6,23.8 57.1,23.8 
	57.1,26.8 46.5,26.8 "/>
<path class="st0" d="M8.6,23.4l1.9-1.8h0.3c1.1,1.3,3.2,2.6,5.4,2.6c2.7,0,4.3-1.6,4.3-3.4c0-2.5-2-4-4.9-4h-1.6v-2.6h1.7
	c2.5,0,4.2-1.3,4.2-3.3c0-1.8-1.5-2.8-3.6-2.8c-1.7,0-3.4,0.7-4.5,1.9h-0.3L9.6,8.1V7.9c1.8-1.8,4.2-2.7,6.9-2.7
	c3.9,0,6.8,2,6.8,5.6c0,2-1.1,3.7-2.9,4.6c2.2,1,3.6,2.9,3.6,5.6c0,3.4-2.8,6.2-7.8,6.2c-2.9,0-6-1.4-7.7-3.5V23.4z"/>
<polygon class="st0" points="95.9,8.6 89.1,8.6 89.1,26.8 85.5,26.8 85.5,8.6 78.7,8.6 78.7,5.6 95.9,5.6 "/>
<g>
</g>
<g>
</g>
<g>
</g>
<g>
</g>
<g>
</g>
<g>
</g>
<g>
</g>
<g>
</g>
<g>
</g>
<g>
</g>
<g>
</g>
<g>
</g>
<g>
</g>
<g>
</g>
<g>
</g>
</svg>
